
            <svg id="trend-chart" width="660" height="400" title="Stack Overflow Trends Chart" version="1.1" xmlns="http://www.w3.org/2000/svg"><g></g><g class="chart-area" transform="translate(100, 20)"><g transform="translate(0,300)" fill="none" font-size="10" font-family="sans-serif" text-anchor="middle"><path class="domain" stroke="#000" d="M0.5,6V0.5H410.5V6"></path><g class="tick" opacity="1" transform="translate(15.500761693017129,0)"><line stroke="#000" y2="6" x1="0.5" x2="0.5"></line><text fill="#000" y="9" x="0.5" dy="0.71em" style="font-size: 12px;">2009</text></g><g class="tick" opacity="1" transform="translate(52.46963521080369,0)"><line stroke="#000" y2="6" x1="0.5" x2="0.5"></line><text fill="#000" y="9" x="0.5" dy="0.71em" style="font-size: 12px;">2010</text></g><g class="tick" opacity="1" transform="translate(89.43850872859025,0)"><line stroke="#000" y2="6" x1="0.5" x2="0.5"></line><text fill="#000" y="9" x="0.5" dy="0.71em" style="font-size: 12px;">2011</text></g><g class="tick" opacity="1" transform="translate(126.40738224637681,0)"><line stroke="#000" y2="6" x1="0.5" x2="0.5"></line><text fill="#000" y="9" x="0.5" dy="0.71em" style="font-size: 12px;">2012</text></g><g class="tick" opacity="1" transform="translate(163.4775403491436,0)"><line stroke="#000" y2="6" x1="0.5" x2="0.5"></line><text fill="#000" y="9" x="0.5" dy="0.71em" style="font-size: 12px;">2013</text></g><g class="tick" opacity="1" transform="translate(200.44641386693016,0)"><line stroke="#000" y2="6" x1="0.5" x2="0.5"></line><text fill="#000" y="9" x="0.5" dy="0.71em" style="font-size: 12px;">2014</text></g><g class="tick" opacity="1" transform="translate(237.41528738471675,0)"><line stroke="#000" y2="6" x1="0.5" x2="0.5"></line><text fill="#000" y="9" x="0.5" dy="0.71em" style="font-size: 12px;">2015</text></g><g class="tick" opacity="1" transform="translate(274.38416090250325,0)"><line stroke="#000" y2="6" x1="0.5" x2="0.5"></line><text fill="#000" y="9" x="0.5" dy="0.71em" style="font-size: 12px;">2016</text></g><g class="tick" opacity="1" transform="translate(311.4543190052701,0)"><line stroke="#000" y2="6" x1="0.5" x2="0.5"></line><text fill="#000" y="9" x="0.5" dy="0.71em" style="font-size: 12px;">2017</text></g><g class="tick" opacity="1" transform="translate(348.4231925230566,0)"><line stroke="#000" y2="6" x1="0.5" x2="0.5"></line><text fill="#000" y="9" x="0.5" dy="0.71em" style="font-size: 12px;">2018</text></g><g class="tick" opacity="1" transform="translate(385.3920660408432,0)"><line stroke="#000" y2="6" x1="0.5" x2="0.5"></line><text fill="#000" y="9" x="0.5" dy="0.71em" style="font-size: 12px;">2019</text></g></g><g class="grid-lines" transform="translate(0,300)" fill="none" font-size="10" font-family="sans-serif" text-anchor="middle"><path class="domain" stroke="#000" d="M0.5,-300V0.5H410.5V-300"></path><g class="tick" opacity="1" transform="translate(15.500761693017129,0)"><line stroke="#000" y2="-300" x1="0.5" x2="0.5" style="stroke: #ccc; fill: none;"></line></g><g class="tick" opacity="1" transform="translate(52.46963521080369,0)"><line stroke="#000" y2="-300" x1="0.5" x2="0.5" style="stroke: #ccc; fill: none;"></line></g><g class="tick" opacity="1" transform="translate(89.43850872859025,0)"><line stroke="#000" y2="-300" x1="0.5" x2="0.5" style="stroke: #ccc; fill: none;"></line></g><g class="tick" opacity="1" transform="translate(126.40738224637681,0)"><line stroke="#000" y2="-300" x1="0.5" x2="0.5" style="stroke: #ccc; fill: none;"></line></g><g class="tick" opacity="1" transform="translate(163.4775403491436,0)"><line stroke="#000" y2="-300" x1="0.5" x2="0.5" style="stroke: #ccc; fill: none;"></line></g><g class="tick" opacity="1" transform="translate(200.44641386693016,0)"><line stroke="#000" y2="-300" x1="0.5" x2="0.5" style="stroke: #ccc; fill: none;"></line></g><g class="tick" opacity="1" transform="translate(237.41528738471675,0)"><line stroke="#000" y2="-300" x1="0.5" x2="0.5" style="stroke: #ccc; fill: none;"></line></g><g class="tick" opacity="1" transform="translate(274.38416090250325,0)"><line stroke="#000" y2="-300" x1="0.5" x2="0.5" style="stroke: #ccc; fill: none;"></line></g><g class="tick" opacity="1" transform="translate(311.4543190052701,0)"><line stroke="#000" y2="-300" x1="0.5" x2="0.5" style="stroke: #ccc; fill: none;"></line></g><g class="tick" opacity="1" transform="translate(348.4231925230566,0)"><line stroke="#000" y2="-300" x1="0.5" x2="0.5" style="stroke: #ccc; fill: none;"></line></g><g class="tick" opacity="1" transform="translate(385.3920660408432,0)"><line stroke="#000" y2="-300" x1="0.5" x2="0.5" style="stroke: #ccc; fill: none;"></line></g></g><text x="205" y="360" class="axis-label x-axis-label" style="text-anchor: middle; font-weight: bold;">Year</text><g fill="none" font-size="10" font-family="sans-serif" text-anchor="end"><path class="domain" stroke="#000" d="M-6,300.5H0.5V0.5H-6"></path><g class="tick" opacity="1" transform="translate(0,300)"><line stroke="#000" x2="-6" y1="0.5" y2="0.5"></line><text fill="#000" x="-9" y="0.5" dy="0.32em" style="font-size: 12px;">0.00%</text></g><g class="tick" opacity="1" transform="translate(0,262.5)"><line stroke="#000" x2="-6" y1="0.5" y2="0.5"></line><text fill="#000" x="-9" y="0.5" dy="0.32em" style="font-size: 12px;">0.10%</text></g><g class="tick" opacity="1" transform="translate(0,225)"><line stroke="#000" x2="-6" y1="0.5" y2="0.5"></line><text fill="#000" x="-9" y="0.5" dy="0.32em" style="font-size: 12px;">0.20%</text></g><g class="tick" opacity="1" transform="translate(0,187.5)"><line stroke="#000" x2="-6" y1="0.5" y2="0.5"></line><text fill="#000" x="-9" y="0.5" dy="0.32em" style="font-size: 12px;">0.30%</text></g><g class="tick" opacity="1" transform="translate(0,150)"><line stroke="#000" x2="-6" y1="0.5" y2="0.5"></line><text fill="#000" x="-9" y="0.5" dy="0.32em" style="font-size: 12px;">0.40%</text></g><g class="tick" opacity="1" transform="translate(0,112.5)"><line stroke="#000" x2="-6" y1="0.5" y2="0.5"></line><text fill="#000" x="-9" y="0.5" dy="0.32em" style="font-size: 12px;">0.50%</text></g><g class="tick" opacity="1" transform="translate(0,75)"><line stroke="#000" x2="-6" y1="0.5" y2="0.5"></line><text fill="#000" x="-9" y="0.5" dy="0.32em" style="font-size: 12px;">0.60%</text></g><g class="tick" opacity="1" transform="translate(0,37.5)"><line stroke="#000" x2="-6" y1="0.5" y2="0.5"></line><text fill="#000" x="-9" y="0.5" dy="0.32em" style="font-size: 12px;">0.70%</text></g><g class="tick" opacity="1" transform="translate(0,0)"><line stroke="#000" x2="-6" y1="0.5" y2="0.5"></line><text fill="#000" x="-9" y="0.5" dy="0.32em" style="font-size: 12px;">0.80%</text></g></g><g class="grid-lines" fill="none" font-size="10" font-family="sans-serif" text-anchor="end"><path class="domain" stroke="#000" d="M410,300.5H0.5V0.5H410"></path><g class="tick" opacity="1" transform="translate(0,300)"><line stroke="#000" x2="410" y1="0.5" y2="0.5" style="stroke: #ccc; fill: none;"></line></g><g class="tick" opacity="1" transform="translate(0,262.5)"><line stroke="#000" x2="410" y1="0.5" y2="0.5" style="stroke: #ccc; fill: none;"></line></g><g class="tick" opacity="1" transform="translate(0,225)"><line stroke="#000" x2="410" y1="0.5" y2="0.5" style="stroke: #ccc; fill: none;"></line></g><g class="tick" opacity="1" transform="translate(0,187.5)"><line stroke="#000" x2="410" y1="0.5" y2="0.5" style="stroke: #ccc; fill: none;"></line></g><g class="tick" opacity="1" transform="translate(0,150)"><line stroke="#000" x2="410" y1="0.5" y2="0.5" style="stroke: #ccc; fill: none;"></line></g><g class="tick" opacity="1" transform="translate(0,112.5)"><line stroke="#000" x2="410" y1="0.5" y2="0.5" style="stroke: #ccc; fill: none;"></line></g><g class="tick" opacity="1" transform="translate(0,75)"><line stroke="#000" x2="410" y1="0.5" y2="0.5" style="stroke: #ccc; fill: none;"></line></g><g class="tick" opacity="1" transform="translate(0,37.5)"><line stroke="#000" x2="410" y1="0.5" y2="0.5" style="stroke: #ccc; fill: none;"></line></g><g class="tick" opacity="1" transform="translate(0,0)"><line stroke="#000" x2="410" y1="0.5" y2="0.5" style="stroke: #ccc; fill: none;"></line></g></g><g class="lines"><path class="line" d="M3.1398221343873516,138.50129199000003L6.178359683794466,175.45838234287498L9.32240200922266,168.641031765L12.360939558629777,162.143871668625L15.500761693017129,145.129932016125L18.64058382740448,132.137733142125L21.47655220685112,150.162786109125L24.61215415019763,140.448163381125L27.650691699604742,116.63667657674998L30.790513833992094,147.457627119L33.82905138339921,147.09123167437502L36.96887351778656,119.70598206337499L40.108695652173914,82.36965087525002L43.14723320158103,107.48952465525L46.291275527009226,106.33110499424998L49.329813076416336,98.81222474325L52.46963521080369,93.26804562675002L55.609457345191046,92.66401456424998L58.44542572463768,96.27810206325003L61.58102766798419,120.58137664875L64.61956521739131,122.87351426700002L67.75938735177866,100.45995671025L70.79792490118577,93.550680311625L73.93774703557312,114.09264580537501L77.07756916996047,101.58730158750004L80.1161067193676,98.55860113424995L83.2601490447958,98.77098840262502L86.29868659420289,114.26260992637498L89.43850872859025,90.03306861750002L92.5783308629776,102.810106735875L95.41429924242425,89.969071552125L98.54990118577075,80.32620840187496L101.58843873517787,99.04377708075L104.72826086956523,94.50812901674999L107.76679841897233,107.734264208625L110.90662055335969,64.94612038875002L114.04644268774703,67.41797264812502L117.08498023715416,83.68721022975001L120.22902256258236,102.83767197337497L123.26756011198945,77.43415610175L126.40738224637681,57.73240101262499L129.54720438076416,73.8405942585L132.48445734519103,83.31114697312503L135.62005928853756,99.21615220237501L138.65859683794469,75.94950766275002L141.79841897233203,64.798006356L144.83695652173913,70.0727620065L147.97677865612647,57.76186807837502L151.11660079051381,78.31477598737501L154.15513833992094,75.297599166375L157.29918066534916,68.60935575975003L160.33771821475625,67.25477141625004L163.4775403491436,60.444128980125015L166.61736248353094,68.33414278800001L169.4533308629776,80.65903974074999L172.58893280632412,83.57211356850001L175.62747035573125,83.36286682425L178.7672924901186,86.76141837900002L181.8058300395257,77.66547335400003L184.94565217391303,67.41422711999999L188.08547430830038,51.72295384200001L191.1240118577075,67.58630768737504L194.26805418313572,51.613487112L197.3065917325428,88.37446264612495L200.44641386693016,42.16732588049996L203.58623600131753,53.99394936599998L206.42220438076419,57.000402901125L209.55780632411066,81.249839954625L212.59634387351778,78.510346075125L215.73616600790515,61.48020147825005L218.77470355731225,24.879036795374986L221.9145256916996,55.29955603274996L225.05434782608697,34.929014125125036L228.09288537549406,62.50613399550002L231.23692770092225,75.13972336875L234.27546525032938,77.17429707525005L237.41528738471675,57.80530526025001L240.5551095191041,40.388732930625L243.39107789855072,57.82983905437504L246.52667984189725,64.82201962725L249.56521739130437,47.80459106325L252.7050395256917,39.583333333500036L255.7435770750988,39.66077709562495L258.8833992094862,26.073190812375003L262.0232213438735,38.51465614462501L265.0617588932806,50.039003868375005L268.2058012187088,23.622472517250003L271.24433876811594,43.99455715875001L274.38416090250325,17.593900028250005L277.5239830368906,34.71551168512502L280.4612360013175,50.95833125925003L283.59683794466406,40.38181920225003L286.6353754940711,46.351651497374974L289.7751976284585,32.528170702500006L292.81373517786557,42.88221861224997L295.95355731225294,25.013974132875035L299.0933794466403,29.961121438500015L302.13191699604744,31.108778330625L305.2759593214756,44.41898921700002L308.31449687088275,55.301794453875004L311.4543190052701,55.52297443500001L314.59414113965744,46.62744467175003L317.4301095191041,26.64226834499999L320.56571146245057,65.95373150325L323.6042490118577,43.49430346987498L326.74407114624506,38.82050153250003L329.7826086956522,43.300198139625024L332.9224308300395,29.622023928000033L336.0622529644269,49.954988794125L339.100790513834,45.09566122799998L342.2448328392622,48.27567722137499L345.2833703886693,51.68655941887502L348.4231925230566,14.153857745999971L351.563014657444,28.462818396750038L354.3989830368906,42.91281023775002L357.5345849802372,71.36271539325003L360.5731225296443,49.63643574862505L363.7129446640316,39.08361073049997L366.75148221343875,48.86753473237502L369.89130434782606,35.99435771362499L373.03112648221344,59.91681993L376.0696640316205,57.706258180500015L379.21370635704875,56.768987103375L382.2522439064559,74.43162706050003L385.3920660408432,44.40735826237503L388.53188817523056,59.968590685499976L391.3678565546772,64.31958452512498L394.5034584980237,84.61439322224999L397.5419960474308,80.629725061875L400.6818181818182,85.55586447450003L403.7203557312253,84.44861843474999L406.8601778656126,80.687948932875L410,81.14409612225003" data-legend="git" style="stroke: rgb(31, 119, 180); fill: none;"></path><path class="line" d="M3.1398221343873516,294.616709733L6.178359683794466,297.40538296575L9.32240200922266,291.04370671125L12.360939558629777,293.733812348625L15.500761693017129,292.8521507085L18.64058382740448,300L21.47655220685112,292.600631413125L24.61215415019763,285.817614523125L27.650691699604742,292.66546706325L30.790513833992094,293.30954504925L33.82905138339921,291.829302456L36.96887351778656,287.28696027375L40.108695652173914,280.527810868125L43.14723320158103,287.512834032L46.291275527009226,288.20290994925L49.329813076416336,278.98038168975L52.46963521080369,282.35215023675L55.609457345191046,273.8722945185L58.44542572463768,277.60503958875L61.58102766798419,286.430524284375L64.61956521739131,274.592512292625L67.75938735177866,270.914502164625L70.79792490118577,278.301122555625L73.93774703557312,271.581041397L77.07756916996047,277.817213842125L80.1161067193676,273.416824196625L83.2601490447958,272.41215163612503L86.29868659420289,263.177427040875L89.43850872859025,267.119272490625L92.5783308629776,264.270638605875L95.41429924242425,268.77416285025L98.54990118577075,269.065544499L101.58843873517787,270.118033766625L104.72826086956523,264.11447106L107.76679841897233,267.645804615375L110.90662055335969,258.088461288L114.04644268774703,252.676527558L117.08498023715416,258.287806750875L120.22902256258236,258.09441808500003L123.26756011198945,254.909675061375L126.40738224637681,239.83527090225L129.54720438076416,245.191728568875L132.48445734519103,244.224233455125L135.62005928853756,246.47692818075L138.65859683794469,244.7508699195L141.79841897233203,241.41384119437498L144.83695652173913,244.42766641875L147.97677865612647,244.3435364295L151.11660079051381,245.501199730875L154.15513833992094,248.14559980762502L157.29918066534916,245.70438830362502L160.33771821475625,240.63470927662502L163.4775403491436,232.50608395875003L166.61736248353094,223.26372025275L169.4533308629776,239.632899282375L172.58893280632412,238.973002819125L175.62747035573125,239.610996037125L178.7672924901186,244.269872356125L181.8058300395257,240.49904572612502L184.94565217391303,237.507701515875L188.08547430830038,231.096907117125L191.1240118577075,240.526452535125L194.26805418313572,236.15342409975L197.3065917325428,243.0238937895L200.44641386693016,234.25464838124998L203.58623600131753,236.90621516925L206.42220438076419,233.269540693125L209.55780632411066,242.19157315762502L212.59634387351778,236.62640524087502L215.73616600790515,237.26791426162498L218.77470355731225,218.13885450675002L221.9145256916996,230.24893886925L225.05434782608697,229.284375901125L228.09288537549406,231.804404930625L231.23692770092225,235.978842318L234.27546525032938,245.0764753875L237.41528738471675,227.09330251575L240.5551095191041,225.952800114375L243.39107789855072,229.029316098375L246.52667984189725,235.266667018875L249.56521739130437,225.312916615125L252.7050395256917,222.795058884L255.7435770750988,221.167591291875L258.8833992094862,209.03640753899998L262.0232213438735,224.112175873875L265.0617588932806,219.70583013712502L268.2058012187088,217.50869217899998L271.24433876811594,218.8807285035L274.38416090250325,206.349153612375L277.5239830368906,212.703824251875L280.4612360013175,222.52451834549998L283.59683794466406,221.559724298625L286.6353754940711,217.902219489375L289.7751976284585,218.062487740125L292.81373517786557,213.72601370175L295.95355731225294,202.042713804375L299.0933794466403,201.26428625887502L302.13191699604744,209.43743654175L305.2759593214756,210.64353877425L308.31449687088275,213.471737202375L311.4543190052701,216.08779821225L314.59414113965744,215.54248155750003L317.4301095191041,199.269548198625L320.56571146245057,206.212506126L323.6042490118577,203.709218022L326.74407114624506,206.02617721274999L329.7826086956522,204.49843839225L332.9224308300395,204.69761346975L336.0622529644269,206.64054981975L339.100790513834,209.485665606L342.2448328392622,209.31670359525L345.2833703886693,214.11520498200002L348.4231925230566,201.81396925875L351.563014657444,199.12923953175002L354.3989830368906,194.71875491475L357.5345849802372,216.584567913L360.5731225296443,220.90224027712497L363.7129446640316,201.850401409875L366.75148221343875,216.60506813775004L369.89130434782606,218.510893807125L373.03112648221344,208.042133422875L376.0696640316205,215.353173459L379.21370635704875,220.373389338L382.2522439064559,208.4865153645L385.3920660408432,209.687677190625L388.53188817523056,214.11515558924998L391.3678565546772,207.058450356L394.5034584980237,213.6356249895L397.5419960474308,208.68420307537502L400.6818181818182,207.11370041325L403.7203557312253,210.469800176625L406.8601778656126,209.34787124887498L410,200.81729455762502" data-legend="github" style="stroke: rgb(255, 127, 14); fill: none;"></path><path class="line" d="M3.1398221343873516,300L6.178359683794466,300L9.32240200922266,300L12.360939558629777,300L15.500761693017129,300L18.64058382740448,300L21.47655220685112,300L24.61215415019763,300L27.650691699604742,300L30.790513833992094,300L33.82905138339921,300L36.96887351778656,300L40.108695652173914,300L43.14723320158103,300L46.291275527009226,300L49.329813076416336,300L52.46963521080369,300L55.609457345191046,300L58.44542572463768,300L61.58102766798419,300L64.61956521739131,300L67.75938735177866,300L70.79792490118577,300L73.93774703557312,300L77.07756916996047,300L80.1161067193676,300L83.2601490447958,300L86.29868659420289,300L89.43850872859025,300L92.5783308629776,300L95.41429924242425,300L98.54990118577075,300L101.58843873517787,300L104.72826086956523,300L107.76679841897233,300L110.90662055335969,300L114.04644268774703,300L117.08498023715416,300L120.22902256258236,300L123.26756011198945,300L126.40738224637681,300L129.54720438076416,299.6988556515L132.48445734519103,300L135.62005928853756,298.842744393375L138.65859683794469,299.7223661805L141.79841897233203,299.71421385975L144.83695652173913,299.2098720345L147.97677865612647,298.14478454775L151.11660079051381,298.01306457375L154.15513833992094,297.49495651275L157.29918066534916,297.970257507L160.33771821475625,297.7807367955L163.4775403491436,296.435180491125L166.61736248353094,297.814473045375L169.4533308629776,295.918238741625L172.58893280632412,293.89730028225L175.62747035573125,295.734605668125L178.7672924901186,294.33252939225L181.8058300395257,290.04788309325L184.94565217391303,291.41831112375L188.08547430830038,292.996734822L191.1240118577075,289.64794907625003L194.26805418313572,291.9396349365L197.3065917325428,295.478086809L200.44641386693016,293.46507047175L203.58623600131753,293.431877289L206.42220438076419,290.467077241875L209.55780632411066,290.781380437125L212.59634387351778,291.733878944625L215.73616600790515,290.80848560625L218.77470355731225,287.55204230925L221.9145256916996,291.767087866875L225.05434782608697,290.316013260375L228.09288537549406,289.3917963225L231.23692770092225,290.56530307875L234.27546525032938,293.49589840125L237.41528738471675,290.29415482425L240.5551095191041,287.956178332125L243.39107789855072,288.73167414375L246.52667984189725,289.50805306425L249.56521739130437,289.2725869395L252.7050395256917,288.19924475175L255.7435770750988,287.694453274875L258.8833992094862,287.360411981625L262.0232213438735,285.202931229L265.0617588932806,288.097095422625L268.2058012187088,285.864660808125L271.24433876811594,289.31493466874997L274.38416090250325,284.841437281125L277.5239830368906,287.21520538275L280.4612360013175,282.824712500625L283.59683794466406,283.546673877375L286.6353754940711,279.724034837625L289.7751976284585,280.997035810125L292.81373517786557,280.188936479625L295.95355731225294,279.66141091725L299.0933794466403,276.03075100725L302.13191699604744,279.994493107875L305.2759593214756,278.46832259625L308.31449687088275,279.29834572875L311.4543190052701,281.851050504L314.59414113965744,278.45471468325L317.4301095191041,276.596084618625L320.56571146245057,273.1733970225L323.6042490118577,273.499805800125L326.74407114624506,272.696794731L329.7826086956522,273.97320079275L332.9224308300395,270.430732750875L336.0622529644269,273.924542593125L339.100790513834,275.59662553124997L342.2448328392622,269.84668715625L345.2833703886693,274.831344058125L348.4231925230566,271.98048523237503L351.563014657444,267.445133541L354.3989830368906,267.67297868775L357.5345849802372,265.8438202875L360.5731225296443,263.493341666625L363.7129446640316,253.49520266324998L366.75148221343875,261.619377949875L369.89130434782606,263.067802749L373.03112648221344,260.55216519L376.0696640316205,258.61248530325L379.21370635704875,255.61795471312502L382.2522439064559,257.953263816375L385.3920660408432,258.57031793475L388.53188817523056,254.93834137425L391.3678565546772,253.630029462L394.5034584980237,254.61142335225L397.5419960474308,259.863521817L400.6818181818182,249.054708135L403.7203557312253,254.1741157305L406.8601778656126,256.56252164025L410,256.839174334875" data-legend="gitlab" style="stroke: rgb(44, 160, 44); fill: none;"></path><path class="line" d="M3.1398221343873516,265.0086132645L6.178359683794466,263.67536151675L9.32240200922266,270.1456890375L12.360939558629777,278.06834322L15.500761693017129,283.321684986375L18.64058382740448,278.47919655675L21.47655220685112,285.201262825875L24.61215415019763,266.316834491625L27.650691699604742,235.45611015525L30.790513833992094,269.223907225875L33.82905138339921,254.477542254375L36.96887351778656,269.95099701075003L40.108695652173914,261.055621735875L43.14723320158103,263.57909925937497L46.291275527009226,247.89618560775L49.329813076416336,249.95328973725L52.46963521080369,261.342805279875L55.609457345191046,243.530442991125L58.44542572463768,195.971796798375L61.58102766798419,211.04454808650001L64.61956521739131,228.133106198625L67.75938735177866,222.889610389875L70.79792490118577,220.644105345L73.93774703557312,236.649404781L77.07756916996047,232.219264517625L80.1161067193676,226.15784499075L83.2601490447958,222.645836939625L86.29868659420289,224.18882037825L89.43850872859025,237.526617732L92.5783308629776,236.2298739675L95.41429924242425,240.522214953L98.54990118577075,244.396295175L101.58843873517787,247.706559091875L104.72826086956523,252.404456353125L107.76679841897233,251.654650575L110.90662055335969,254.945095884375L114.04644268774703,251.575981687125L117.08498023715416,251.6433865875L120.22902256258236,255.346511074125L123.26756011198945,259.238346255375L126.40738224637681,256.887306421875L129.54720438076416,259.044368601L132.48445734519103,265.697903575125L135.62005928853756,264.99301789125L138.65859683794469,270.2931813135L141.79841897233203,266.56302156L144.83695652173913,274.715905100625L147.97677865612647,266.87115263662497L151.11660079051381,270.195968602875L154.15513833992094,271.9435129395L157.29918066534916,279.195139443375L160.33771821475625,280.02663115875L163.4775403491436,279.561701480625L166.61736248353094,281.058766391625L169.4533308629776,280.665341407125L172.58893280632412,281.038040161875L175.62747035573125,278.22403946325L178.7672924901186,276.62168374275L181.8058300395257,286.236434065125L184.94565217391303,281.076275811375L188.08547430830038,286.2193814235L191.1240118577075,283.761488746875L194.26805418313572,287.6973375345L197.3065917325428,286.660356085875L200.44641386693016,284.94985926825L203.58623600131753,288.256992728625L206.42220438076419,288.66841257075L209.55780632411066,286.36412523L212.59634387351778,286.22313157425L215.73616600790515,287.13187984875L218.77470355731225,286.497130640625L221.9145256916996,284.9063277555L225.05434782608697,288.96475929675L228.09288537549406,288.525820512375L231.23692770092225,289.89139615575L234.27546525032938,289.159830668625L237.41528738471675,287.585546868L240.5551095191041,289.071347005125L243.39107789855072,290.115503635125L246.52667984189725,290.695820641875L249.56521739130437,290.082203019375L252.7050395256917,290.399385561L255.7435770750988,290.963114124L258.8833992094862,291.090126478875L262.0232213438735,289.430665163625L265.0617588932806,290.316281021625L268.2058012187088,290.295140256375L271.24433876811594,291.713622804375L274.38416090250325,293.770453677375L277.5239830368906,293.00831544375L280.4612360013175,291.785732065875L283.59683794466406,292.921243412625L286.6353754940711,293.83769686275L289.7751976284585,293.6656786035L292.81373517786557,293.609334348375L295.95355731225294,290.24577870525L299.0933794466403,293.402958993L302.13191699604744,295.267514498625L305.2759593214756,293.109863230875L308.31449687088275,294.650134289625L311.4543190052701,293.594488413375L314.59414113965744,294.1827729645L317.4301095191041,293.4469036935L320.56571146245057,295.775338114125L323.6042490118577,294.740419471875L326.74407114624506,295.555292165625L329.7826086956522,294.332874366375L332.9224308300395,295.5327006315L336.0622529644269,293.946768816375L339.100790513834,294.675627388875L342.2448328392622,293.522621685375L345.2833703886693,295.070057083875L348.4231925230566,295.055379747L351.563014657444,296.7938389095L354.3989830368906,295.631483606625L357.5345849802372,296.28232057575L360.5731225296443,297.070453343625L363.7129446640316,296.328568631625L366.75148221343875,295.735486438875L369.89130434782606,295.472827434L373.03112648221344,295.55885303475L376.0696640316205,297.088315549125L379.21370635704875,296.519055271875L382.2522439064559,295.30065889725L385.3920660408432,295.177497325875L388.53188817523056,297.7692248205L391.3678565546772,297.379088622L394.5034584980237,295.587221715L397.5419960474308,295.328028994875L400.6818181818182,296.208722466L403.7203557312253,297.241960669125L406.8601778656126,295.750681465125L410,297.60217635225" data-legend="mercurial" style="stroke: rgb(214, 39, 40); fill: none;"></path></g></g><g transform="translate(20, 150)"><text transform="rotate(-90)" x="-50" y="0" dy="1em" class="axis-label y-axis-label" style="text-anchor: middle; font-weight: bold;">% of Stack Overflow questions that month</text></g><g class="legend" transform="translate(530, 30)" style="font-size: 12px;"><text class="legend-title" style="font-weight: bold;">Tag</text><g class="legend-items" transform="translate(0,20)"><text y="0em" x="1em">git</text><text y="1em" x="1em">github</text><text y="2em" x="1em">mercurial</text><text y="3em" x="1em">gitlab</text><circle cy="-0.25em" cx="0" r="0.4em" style="fill: rgb(31, 119, 180);"></circle><circle cy="0.75em" cx="0" r="0.4em" style="fill: rgb(255, 127, 14);"></circle><circle cy="1.75em" cx="0" r="0.4em" style="fill: rgb(214, 39, 40);"></circle><circle cy="2.75em" cx="0" r="0.4em" style="fill: rgb(44, 160, 44);"></circle></g><rect class="legend-box"></rect></g></svg>
        